<svg width="124" height="73" viewBox="0 0 124 73" fill="none" xmlns="http://www.w3.org/2000/svg">
<!-- <rect x="0.5" y="1.46582" width="123" height="71" rx="4.5" stroke="#9747FF" stroke-dasharray="10 5"/>
<mask id="mask0_70853_4958" style="mask-type:alpha" maskUnits="userSpaceOnUse" x="20" y="20" width="32" height="33">
<rect x="20" y="20.9658" width="32" height="32" fill="#D9D9D9"/>
</mask>  -->
<g mask="url(#mask0_70853_4958)">  
<path d="M35.95 42.9658C36.3 42.9658 36.5958 42.845 36.8375 42.6033C37.0792 42.3617 37.2 42.0658 37.2 41.7158C37.2 41.3658 37.0792 41.07 36.8375 40.8283C36.5958 40.5867 36.3 40.4658 35.95 40.4658C35.6 40.4658 35.3042 40.5867 35.0625 40.8283C34.8208 41.07 34.7 41.3658 34.7 41.7158C34.7 42.0658 34.8208 42.3617 35.0625 42.6033C35.3042 42.845 35.6 42.9658 35.95 42.9658ZM36 46.9658C34.6167 46.9658 33.3167 46.7033 32.1 46.1783C30.8833 45.6533 29.825 44.9408 28.925 44.0408C28.025 43.1408 27.3125 42.0825 26.7875 40.8658C26.2625 39.6492 26 38.3492 26 36.9658C26 35.5825 26.2625 34.2825 26.7875 33.0658C27.3125 31.8492 28.025 30.7908 28.925 29.8908C29.825 28.9908 30.8833 28.2783 32.1 27.7533C33.3167 27.2283 34.6167 26.9658 36 26.9658C37.3833 26.9658 38.6833 27.2283 39.9 27.7533C41.1167 28.2783 42.175 28.9908 43.075 29.8908C43.975 30.7908 44.6875 31.8492 45.2125 33.0658C45.7375 34.2825 46 35.5825 46 36.9658C46 38.3492 45.7375 39.6492 45.2125 40.8658C44.6875 42.0825 43.975 43.1408 43.075 44.0408C42.175 44.9408 41.1167 45.6533 39.9 46.1783C38.6833 46.7033 37.3833 46.9658 36 46.9658ZM36 44.9658C38.2333 44.9658 40.125 44.1908 41.675 42.6408C43.225 41.0908 44 39.1992 44 36.9658C44 34.7325 43.225 32.8408 41.675 31.2908C40.125 29.7408 38.2333 28.9658 36 28.9658C33.7667 28.9658 31.875 29.7408 30.325 31.2908C28.775 32.8408 28 34.7325 28 36.9658C28 39.1992 28.775 41.0908 30.325 42.6408C31.875 44.1908 33.7667 44.9658 36 44.9658ZM36.1 32.6658C36.5167 32.6658 36.8792 32.7992 37.1875 33.0658C37.4958 33.3325 37.65 33.6658 37.65 34.0658C37.65 34.4325 37.5375 34.7575 37.3125 35.0408C37.0875 35.3242 36.8333 35.5908 36.55 35.8408C36.1667 36.1742 35.8292 36.5408 35.5375 36.9408C35.2458 37.3408 35.1 37.7908 35.1 38.2908C35.1 38.5242 35.1875 38.72 35.3625 38.8783C35.5375 39.0367 35.7417 39.1158 35.975 39.1158C36.225 39.1158 36.4375 39.0325 36.6125 38.8658C36.7875 38.6992 36.9 38.4908 36.95 38.2408C37.0167 37.8908 37.1667 37.5783 37.4 37.3033C37.6333 37.0283 37.8833 36.7658 38.15 36.5158C38.5333 36.1492 38.8625 35.7492 39.1375 35.3158C39.4125 34.8825 39.55 34.3992 39.55 33.8658C39.55 33.0158 39.2042 32.32 38.5125 31.7783C37.8208 31.2367 37.0167 30.9658 36.1 30.9658C35.4667 30.9658 34.8625 31.0992 34.2875 31.3658C33.7125 31.6325 33.275 32.0408 32.975 32.5908C32.8583 32.7908 32.8208 33.0033 32.8625 33.2283C32.9042 33.4533 33.0167 33.6242 33.2 33.7408C33.4333 33.8742 33.675 33.9158 33.925 33.8658C34.175 33.8158 34.3833 33.6742 34.55 33.4408C34.7333 33.1908 34.9625 32.9992 35.2375 32.8658C35.5125 32.7325 35.8 32.6658 36.1 32.6658Z" fill="#A8A8A8"/>
</g>
<!--
<mask id="mask1_70853_4958" style="mask-type:alpha" maskUnits="userSpaceOnUse" x="72" y="20" width="32" height="33">
 <rect x="72" y="20.9658" width="32" height="32" fill="#D9D9D9"/>  
</mask> 
<g mask="url(#mask1_70853_4958)">
<path d="M87.94 44.1658C88.36 44.1658 88.715 44.0208 89.005 43.7308C89.295 43.4408 89.44 43.0858 89.44 42.6658C89.44 42.2458 89.295 41.8908 89.005 41.6008C88.715 41.3108 88.36 41.1658 87.94 41.1658C87.52 41.1658 87.165 41.3108 86.875 41.6008C86.585 41.8908 86.44 42.2458 86.44 42.6658C86.44 43.0858 86.585 43.4408 86.875 43.7308C87.165 44.0208 87.52 44.1658 87.94 44.1658ZM88 48.9658C86.34 48.9658 84.78 48.6508 83.32 48.0208C81.86 47.3908 80.59 46.5358 79.51 45.4558C78.43 44.3758 77.575 43.1058 76.945 41.6458C76.315 40.1858 76 38.6258 76 36.9658C76 35.3058 76.315 33.7458 76.945 32.2858C77.575 30.8258 78.43 29.5558 79.51 28.4758C80.59 27.3958 81.86 26.5408 83.32 25.9108C84.78 25.2808 86.34 24.9658 88 24.9658C89.66 24.9658 91.22 25.2808 92.68 25.9108C94.14 26.5408 95.41 27.3958 96.49 28.4758C97.57 29.5558 98.425 30.8258 99.055 32.2858C99.685 33.7458 100 35.3058 100 36.9658C100 38.6258 99.685 40.1858 99.055 41.6458C98.425 43.1058 97.57 44.3758 96.49 45.4558C95.41 46.5358 94.14 47.3908 92.68 48.0208C91.22 48.6508 89.66 48.9658 88 48.9658ZM88 46.5658C90.68 46.5658 92.95 45.6358 94.81 43.7758C96.67 41.9158 97.6 39.6458 97.6 36.9658C97.6 34.2858 96.67 32.0158 94.81 30.1558C92.95 28.2958 90.68 27.3658 88 27.3658C85.32 27.3658 83.05 28.2958 81.19 30.1558C79.33 32.0158 78.4 34.2858 78.4 36.9658C78.4 39.6458 79.33 41.9158 81.19 43.7758C83.05 45.6358 85.32 46.5658 88 46.5658ZM88.12 31.8058C88.62 31.8058 89.055 31.9658 89.425 32.2858C89.795 32.6058 89.98 33.0058 89.98 33.4858C89.98 33.9258 89.845 34.3158 89.575 34.6558C89.305 34.9958 89 35.3158 88.66 35.6158C88.2 36.0158 87.795 36.4558 87.445 36.9358C87.095 37.4158 86.92 37.9558 86.92 38.5558C86.92 38.8358 87.025 39.0708 87.235 39.2608C87.445 39.4508 87.69 39.5458 87.97 39.5458C88.27 39.5458 88.525 39.4458 88.735 39.2458C88.945 39.0458 89.08 38.7958 89.14 38.4958C89.22 38.0758 89.4 37.7008 89.68 37.3708C89.96 37.0408 90.26 36.7258 90.58 36.4258C91.04 35.9858 91.435 35.5058 91.765 34.9858C92.095 34.4658 92.26 33.8858 92.26 33.2458C92.26 32.2258 91.845 31.3908 91.015 30.7408C90.185 30.0908 89.22 29.7658 88.12 29.7658C87.36 29.7658 86.635 29.9258 85.945 30.2458C85.255 30.5658 84.73 31.0558 84.37 31.7158C84.23 31.9558 84.185 32.2108 84.235 32.4808C84.285 32.7508 84.42 32.9558 84.64 33.0958C84.92 33.2558 85.21 33.3058 85.51 33.2458C85.81 33.1858 86.06 33.0158 86.26 32.7358C86.48 32.4358 86.755 32.2058 87.085 32.0458C87.415 31.8858 87.76 31.8058 88.12 31.8058Z" fill="#A8A8A8"/>
</g>   -->
</svg>
