<svg width="28" height="16" viewBox="0 0 28 16" fill="none" xmlns="http://www.w3.org/2000/svg">
<path d="M7.98963 5.02011C7.93552 4.47448 7.70328 4.05059 7.29293 3.74847C6.88258 3.44634 6.32567 3.29527 5.62221 3.29527C5.14421 3.29527 4.74062 3.36291 4.41144 3.4982C4.08225 3.62897 3.82973 3.8116 3.65386 4.04608C3.48251 4.28057 3.39683 4.54663 3.39683 4.84425C3.38781 5.09226 3.43967 5.30871 3.5524 5.4936C3.66964 5.67848 3.82973 5.83856 4.03265 5.97384C4.23557 6.10462 4.47006 6.21961 4.73611 6.31881C5.00217 6.41351 5.28626 6.49468 5.58839 6.56232L6.83297 6.85994C7.43723 6.99522 7.99188 7.17559 8.49693 7.40106C9.00199 7.62653 9.4394 7.90386 9.80917 8.23304C10.1789 8.56223 10.4653 8.95004 10.6682 9.39646C10.8756 9.84289 10.9816 10.3547 10.9861 10.9319C10.9816 11.7797 10.7652 12.5147 10.3368 13.137C9.91288 13.7548 9.29961 14.235 8.49693 14.5777C7.69878 14.9159 6.73602 15.085 5.60868 15.085C4.49035 15.085 3.51633 14.9137 2.6866 14.571C1.86138 14.2283 1.21654 13.721 0.752076 13.0491C0.292119 12.3727 0.0508672 11.5362 0.0283203 10.5396H2.86247C2.89403 11.0041 3.02706 11.3919 3.26155 11.703C3.50054 12.0096 3.81845 12.2419 4.21528 12.3997C4.61661 12.553 5.06981 12.6297 5.57486 12.6297C6.07089 12.6297 6.50153 12.5575 6.86679 12.4132C7.23656 12.2689 7.52291 12.0683 7.72583 11.8112C7.92875 11.5542 8.03022 11.2588 8.03022 10.9251C8.03022 10.614 7.93777 10.3525 7.75289 10.1405C7.57251 9.92857 7.30646 9.74819 6.95473 9.59939C6.60751 9.45058 6.18137 9.31529 5.67632 9.19354L4.16793 8.81475C3 8.53066 2.07783 8.08649 1.40143 7.48223C0.72502 6.87797 0.389071 6.06403 0.39358 5.0404C0.389071 4.20166 0.612285 3.46888 1.06322 2.84208C1.51867 2.21528 2.14322 1.72601 2.93687 1.37428C3.73052 1.02255 4.6324 0.84668 5.6425 0.84668C6.67064 0.84668 7.568 1.02255 8.3346 1.37428C9.1057 1.72601 9.70545 2.21528 10.1338 2.84208C10.5622 3.46888 10.7832 4.19489 10.7967 5.02011H7.98963Z" fill="#29ABE2"/>
<path d="M12.9561 1.03607H16.5682L20.3831 10.3434H20.5454L24.3604 1.03607H27.9724V14.8889H25.1315V5.87238H25.0165L21.4315 14.8212H19.497L15.912 5.83856H15.7971V14.8889H12.9561V1.03607Z" fill="#29ABE2"/>
</svg>
